<?xml version="1.0" encoding="utf-8"?>
<!-- Generator: Adobe Illustrator 24.0.1, SVG Export Plug-In . SVG Version: 6.00 Build 0)  -->
<svg version="1.1" id="Layer_1" xmlns="http://www.w3.org/2000/svg" xmlns:xlink="http://www.w3.org/1999/xlink" x="0px" y="0px"
	 viewBox="0 0 588 285" style="enable-background:new 0 0 588 285;" xml:space="preserve">
<style type="text/css">
	.st0{fill:#17161A;}
</style>
<title>royal tickets</title>
<desc>Created with Sketch.</desc>
<g>
	<g>
		<path class="st0" d="M61.6,35.9v19c-1.7-0.3-3.3-0.5-4.6-0.5c-7.8,0-13.9,2.3-18.2,6.8c-4.4,4.5-6.6,11.1-6.6,19.6v41.4h-20V36.9
			h19v12.5C36.9,40.4,47.1,35.9,61.6,35.9z"/>
		<path class="st0" d="M92.9,117.8c-6.9-3.7-12.3-8.9-16.2-15.6c-3.9-6.7-5.8-14.2-5.8-22.6c0-8.4,1.9-15.9,5.8-22.6
			c3.9-6.6,9.3-11.8,16.2-15.5c6.9-3.7,14.7-5.6,23.4-5.6c8.7,0,16.6,1.9,23.5,5.6c6.9,3.7,12.3,8.9,16.2,15.5
			c3.9,6.6,5.8,14.1,5.8,22.6c0,8.4-1.9,16-5.8,22.6c-3.9,6.7-9.3,11.9-16.2,15.6c-6.9,3.7-14.8,5.6-23.5,5.6
			C107.6,123.4,99.9,121.6,92.9,117.8z M134.5,98.9c4.8-4.9,7.2-11.4,7.2-19.4s-2.4-14.5-7.2-19.4c-4.8-4.9-10.9-7.4-18.2-7.4
			s-13.4,2.5-18.2,7.4C93.4,65.1,91,71.6,91,79.6s2.4,14.5,7.1,19.4c4.7,4.9,10.8,7.4,18.2,7.4S129.7,103.8,134.5,98.9z"/>
		<path class="st0" d="M258.8,36.9l-40,92.3c-3.7,9.3-8.3,15.8-13.6,19.6c-5.3,3.8-11.8,5.7-19.4,5.7c-4.3,0-8.5-0.7-12.6-2.1
			c-4.2-1.4-7.6-3.3-10.2-5.8l8-14.7c1.9,1.8,4.2,3.3,6.8,4.3c2.6,1.1,5.3,1.6,7.9,1.6c3.5,0,6.4-0.9,8.7-2.7
			c2.3-1.8,4.4-4.9,6.3-9.1l1.4-3.4l-37.3-85.8h20.8l26.9,63.2l27-63.2H258.8z"/>
		<path class="st0" d="M330.3,44.9c6.7,6,10,15.1,10,27.3v50.1h-18.9v-10.4c-2.5,3.7-5.9,6.6-10.5,8.6c-4.5,2-10,3-16.4,3
			s-12-1.1-16.8-3.3c-4.8-2.2-8.5-5.2-11.1-9.1c-2.6-3.9-3.9-8.3-3.9-13.2c0-7.7,2.9-13.8,8.6-18.5c5.7-4.6,14.7-7,27-7h22.1v-1.3
			c0-6-1.8-10.6-5.4-13.8c-3.6-3.2-8.9-4.8-15.9-4.8c-4.8,0-9.5,0.7-14.2,2.2c-4.6,1.5-8.6,3.6-11.8,6.2l-7.8-14.6
			c4.5-3.4,9.9-6,16.2-7.8c6.3-1.8,13-2.7,20-2.7C314,35.9,323.6,38.9,330.3,44.9z M312,105.4c3.9-2.3,6.6-5.6,8.2-9.8v-9.9h-20.6
			c-11.5,0-17.3,3.8-17.3,11.4c0,3.6,1.4,6.5,4.3,8.6c2.9,2.1,6.9,3.2,12,3.2C303.7,108.9,308.1,107.7,312,105.4z"/>
		<path class="st0" d="M365.9,3.6h20v118.7h-20V3.6z"/>
	</g>
	<g>
		<path class="st0" d="M63.5,277.7c-2.3,1.9-5.2,3.4-8.6,4.3s-6.9,1.4-10.6,1.4c-9.4,0-16.6-2.5-21.8-7.4
			c-5.1-4.9-7.7-12.1-7.7-21.4v-41.1H0.8v-16h14.1V178h20v19.5h22.9v16H34.8v40.6c0,4.2,1,7.3,3,9.5c2,2.2,5,3.3,8.8,3.3
			c4.5,0,8.2-1.2,11.2-3.5L63.5,277.7z"/>
		<path class="st0" d="M80.9,179.3c-2.5-2.3-3.7-5.1-3.7-8.6c0-3.4,1.2-6.3,3.7-8.6c2.5-2.3,5.5-3.4,9.1-3.4c3.6,0,6.7,1.1,9.1,3.3
			c2.5,2.2,3.7,4.9,3.7,8.2c0,3.5-1.2,6.5-3.6,8.9c-2.4,2.4-5.5,3.6-9.2,3.6C86.4,182.8,83.4,181.6,80.9,179.3z M80,196.9h20v85.4
			H80V196.9z"/>
		<path class="st0" d="M141.6,277.8c-7-3.7-12.5-8.9-16.5-15.6c-3.9-6.7-5.9-14.2-5.9-22.6c0-8.4,2-15.9,5.9-22.6
			c3.9-6.6,9.4-11.8,16.4-15.5c7-3.7,15-5.6,23.9-5.6c8.4,0,15.8,1.7,22.2,5.1c6.3,3.4,11.1,8.3,14.3,14.7l-15.4,9
			c-2.5-3.9-5.5-6.9-9.2-8.9c-3.7-2-7.7-3-12.1-3c-7.5,0-13.7,2.4-18.6,7.3c-4.9,4.9-7.4,11.3-7.4,19.4c0,8.1,2.4,14.6,7.3,19.4
			c4.9,4.9,11.1,7.3,18.6,7.3c4.4,0,8.4-1,12.1-3c3.7-2,6.7-4.9,9.2-8.9l15.4,9c-3.3,6.4-8.1,11.3-14.5,14.8
			c-6.3,3.5-13.7,5.2-22,5.2C156.5,283.4,148.6,281.6,141.6,277.8z"/>
		<path class="st0" d="M253.2,245.7l-14.9,14.1v22.6h-20V163.6h20v71.7l41.4-38.4h24l-35.7,35.8l39,49.6h-24.3L253.2,245.7z"/>
		<path class="st0" d="M396.8,246h-67c1.2,6.3,4.2,11.3,9.2,15c5,3.7,11.1,5.5,18.5,5.5c9.4,0,17.1-3.1,23.2-9.3l10.7,12.3
			c-3.8,4.6-8.7,8.1-14.6,10.4c-5.9,2.3-12.5,3.5-19.8,3.5c-9.4,0-17.7-1.9-24.8-5.6c-7.1-3.7-12.7-8.9-16.6-15.6
			c-3.9-6.7-5.8-14.2-5.8-22.6c0-8.3,1.9-15.8,5.7-22.5c3.8-6.7,9-11.9,15.8-15.6c6.7-3.7,14.3-5.6,22.7-5.6
			c8.3,0,15.8,1.8,22.3,5.5c6.6,3.7,11.7,8.9,15.4,15.5c3.7,6.7,5.5,14.4,5.5,23.1C397.1,241.4,397,243.4,396.8,246z M337.6,217.6
			c-4.4,3.8-7.1,8.8-8.1,15.1H378c-0.9-6.2-3.5-11.2-7.8-15c-4.4-3.8-9.8-5.8-16.3-5.8C347.5,211.9,342.1,213.8,337.6,217.6z"/>
		<path class="st0" d="M467.6,277.7c-2.3,1.9-5.2,3.4-8.6,4.3c-3.4,1-6.9,1.4-10.6,1.4c-9.4,0-16.6-2.5-21.8-7.4
			c-5.1-4.9-7.7-12.1-7.7-21.4v-41.1h-14.1v-16H419V178h20v19.5h22.9v16H439v40.6c0,4.2,1,7.3,3,9.5c2,2.2,5,3.3,8.8,3.3
			c4.5,0,8.2-1.2,11.2-3.5L467.6,277.7z"/>
		<path class="st0" d="M490.2,280.7c-6.6-1.8-11.9-4.1-15.8-6.9l7.7-15.2c3.8,2.6,8.5,4.6,13.8,6.2c5.4,1.5,10.7,2.3,15.9,2.3
			c11.9,0,17.9-3.1,17.9-9.4c0-3-1.5-5.1-4.6-6.2c-3-1.2-7.9-2.3-14.6-3.4c-7-1.1-12.8-2.3-17.2-3.7c-4.4-1.4-8.3-3.8-11.5-7.3
			c-3.3-3.5-4.9-8.3-4.9-14.5c0-8.1,3.4-14.6,10.2-19.4c6.8-4.9,15.9-7.3,27.4-7.3c5.9,0,11.7,0.7,17.6,2c5.9,1.3,10.7,3.1,14.4,5.4
			l-7.7,15.2c-7.3-4.3-15.4-6.4-24.5-6.4c-5.9,0-10.3,0.9-13.4,2.6c-3,1.8-4.6,4.1-4.6,7c0,3.2,1.6,5.5,4.9,6.8
			c3.3,1.3,8.3,2.6,15.1,3.8c6.8,1.1,12.4,2.3,16.8,3.7c4.4,1.4,8.1,3.7,11.3,7c3.1,3.3,4.7,8,4.7,14.1c0,8-3.5,14.4-10.4,19.2
			c-6.9,4.8-16.4,7.2-28.3,7.2C503.6,283.4,496.8,282.5,490.2,280.7z"/>
		<path class="st0" d="M563.6,279.7c-2.6-2.5-3.8-5.7-3.8-9.5c0-3.9,1.3-7.1,3.8-9.6c2.5-2.5,5.6-3.7,9.4-3.7c3.7,0,6.9,1.2,9.4,3.7
			c2.5,2.5,3.8,5.7,3.8,9.6c0,3.8-1.3,7-3.8,9.5c-2.6,2.5-5.7,3.8-9.3,3.8C569.3,283.4,566.2,282.2,563.6,279.7z"/>
	</g>
	<g>
		<path class="st0" d="M490,187.7c5.9-2.5,14.2-4.1,23.4-4.1c8.9,0,16.9,1.5,22.8,3.9l4.7-13.7c0.2-0.7-0.3-1.5-0.9-1.1
			c-4.5,2.5-17.1,7.7-26.8-7c0,0.1-0.1,0.1-0.1,0.2c0-0.1-0.1-0.1-0.1-0.2c-9.7,14.7-22.4,9.5-26.8,7c-0.6-0.3-1.2,0.4-0.9,1.1
			L490,187.7z"/>
	</g>
</g>
</svg>
